<?xml version="1.0" encoding="UTF-8"?>
<svg version="1.1" xmlns="http://www.w3.org/2000/svg" width="1080" height="1080">
<path d="M0 0 C2.3581543 1.04711914 2.3581543 1.04711914 4.82421875 2.53515625 C5.75685547 3.08945312 6.68949219 3.64375 7.65039062 4.21484375 C9.15375977 5.12943359 9.15375977 5.12943359 10.6875 6.0625 C12.85756543 7.35632032 15.02815638 8.64925952 17.19921875 9.94140625 C18.32118652 10.61316895 19.4431543 11.28493164 20.59912109 11.97705078 C26.03284526 15.20919998 31.51695718 18.35250309 37 21.5 C45.3487593 26.30716235 53.68244114 31.13906226 62 36 C73.54722486 42.74713114 85.12902119 49.4333937 96.71777344 56.10888672 C103.22871257 59.86028024 109.73663194 63.61690994 116.24511719 67.37255859 C121.68585336 70.51182246 127.12731477 73.64981497 132.5703125 76.78515625 C144.0544882 83.40222892 155.52196894 90.04633977 166.96582031 96.73291016 C177.52620282 102.89919054 188.12126766 109.0049595 198.71777344 115.10888672 C205.22871257 118.86028024 211.73663194 122.61690994 218.24511719 126.37255859 C223.68585336 129.51182246 229.12731477 132.64981497 234.5703125 135.78515625 C246.0544882 142.40222892 257.52196894 149.04633977 268.96582031 155.73291016 C279.52620282 161.89919054 290.12126766 168.0049595 300.71777344 174.10888672 C307.22871257 177.86028024 313.73663194 181.61690994 320.24511719 185.37255859 C325.68585336 188.51182246 331.12731477 191.64981497 336.5703125 194.78515625 C348.05306897 201.40141117 359.51960901 208.04390011 370.96142578 214.73071289 C378.2931259 219.01244982 385.64292389 223.26203528 393 227.5 C401.86401814 232.60816898 410.72037235 237.72904102 419.5625 242.875 C421.11614258 243.77702148 421.11614258 243.77702148 422.70117188 244.69726562 C424.11946289 245.52387695 424.11946289 245.52387695 425.56640625 246.3671875 C426.81852905 247.09591064 426.81852905 247.09591064 428.09594727 247.83935547 C430 249 430 249 431 250 C431.11082729 252.66023066 431.15574765 255.29502274 431.15936089 257.95623875 C431.16693378 259.2282523 431.16693378 259.2282523 431.17465967 260.5259631 C431.19050228 263.40472188 431.19909939 266.28345788 431.20773315 269.1622467 C431.21746648 271.23218469 431.22760519 273.30212081 431.23811734 275.37205499 C431.26573345 281.08932902 431.28678726 286.80661147 431.30663323 292.52391708 C431.32439554 297.42061937 431.34582304 302.31730306 431.36717294 307.21399081 C431.56516713 352.8634579 431.66942416 398.51338808 431.75161848 444.16319483 C431.76388917 450.95572108 431.7766319 457.74824644 431.78955078 464.54077148 C431.79096776 465.2913484 431.79238474 466.04192532 431.79384466 466.81524699 C431.84009811 491.14927745 431.93113609 515.4828798 432.04639695 539.81667356 C432.1646317 564.82377696 432.24051438 589.83064744 432.26198688 614.83803058 C432.2650326 618.36947788 432.26854838 621.90092457 432.27234268 625.43237114 C432.27307268 626.12740995 432.27380268 626.82244875 432.2745548 627.53854934 C432.28752614 638.72961665 432.34494086 649.92003604 432.41877765 661.11084881 C432.49200322 672.35899574 432.51668175 683.6064733 432.4950311 694.85490716 C432.48469721 700.95069341 432.49565591 707.04451848 432.56312943 713.13998222 C432.62441521 718.71922089 432.62589321 724.29514011 432.57947291 729.8744927 C432.57327466 731.89416566 432.5891581 733.91405009 432.62916015 735.93333638 C432.90312302 750.63226437 432.90312302 750.63226437 429.74678674 754.5591623 C426.24143092 757.58529579 422.26597915 759.24457764 418 761 C415.96941357 762.15013379 413.95219579 763.32461609 411.95703125 764.53515625 C409.90995526 765.71285349 407.86174178 766.88857538 405.8125 768.0625 C404.10957218 769.04151113 402.4066462 770.02052547 400.7038269 770.99972534 C398.95604539 772.00447299 397.20779404 773.00839914 395.45947266 774.01220703 C389.96860763 777.1672263 384.48452655 780.33397963 379 783.5 C376.83336859 784.75006112 374.66670186 786.000061 372.5 787.25 C370.89125 788.178125 370.89125 788.178125 369.25 789.125 C359.50000002 794.74999999 359.50000002 794.74999999 356.24951172 796.62524414 C354.08442929 797.87435518 351.91939018 799.12354129 349.75439453 800.37280273 C344.31384294 803.51202309 338.87252784 806.64990563 333.4296875 809.78515625 C322.93767906 815.83055159 312.45518324 821.89110219 302 828 C290.45270484 834.74701194 278.87097973 841.43339318 267.28222656 848.10888672 C261.85340062 851.23680146 256.42677993 854.36853731 251 857.5 C244.47766725 861.26363919 237.95486238 865.02644622 231.4296875 868.78515625 C220.93767906 874.83055159 210.45518324 880.89110219 200 887 C188.45270484 893.74701194 176.87097973 900.43339318 165.28222656 907.10888672 C159.85340062 910.23680146 154.42677993 913.36853731 149 916.5 C142.47766725 920.26363919 135.95486238 924.02644622 129.4296875 927.78515625 C118.93767906 933.83055159 108.45518324 939.89110219 98 946 C86.45270484 952.74701194 74.87097973 959.43339318 63.28222656 966.10888672 C56.78293706 969.8535681 50.28643128 973.60307826 43.79003906 977.3527832 C38.7499957 980.26147065 33.70898255 983.16842846 28.66400146 986.06854248 C26.88250422 987.09275665 25.10135678 988.11757651 23.3203125 989.14257812 C21.08923375 990.42633375 18.85750427 991.70895939 16.625 992.99023438 C15.61179687 993.57353516 14.59859375 994.15683594 13.5546875 994.7578125 C12.59916992 995.30727539 11.64365234 995.85673828 10.65917969 996.42285156 C7.63272595 998.21782871 4.70809523 1000.1373995 1.82080078 1002.14794922 C-0.64319443 1003.30098533 -2.30134328 1003.30127036 -5 1003 C-7.3581543 1001.95288086 -7.3581543 1001.95288086 -9.82421875 1000.46484375 C-10.75669434 999.91062744 -11.68916992 999.35641113 -12.64990234 998.78540039 C-13.65230957 998.17559326 -14.6547168 997.56578613 -15.6875 996.9375 C-17.86018566 995.64240439 -20.03338004 994.34816191 -22.20703125 993.0546875 C-23.32932129 992.38276367 -24.45161133 991.71083984 -25.60791016 991.01855469 C-30.99827466 987.81087269 -36.43640847 984.68747303 -41.875 981.5625 C-44.05739912 980.30487394 -46.23969016 979.04706033 -48.421875 977.7890625 C-50.6145405 976.52596731 -52.80724889 975.26294656 -55 974 C-68.67554314 966.12337411 -82.33960958 958.22879908 -95.96582031 950.26708984 C-106.52620282 944.10080946 -117.12126766 937.9950405 -127.71777344 931.89111328 C-134.22871257 928.13971976 -140.73663194 924.38309006 -147.24511719 920.62744141 C-152.68585336 917.48817754 -158.12731477 914.35018503 -163.5703125 911.21484375 C-175.0544882 904.59777108 -186.52196894 897.95366023 -197.96582031 891.26708984 C-208.52620282 885.10080946 -219.12126766 878.9950405 -229.71777344 872.89111328 C-236.22871257 869.13971976 -242.73663194 865.38309006 -249.24511719 861.62744141 C-254.68585336 858.48817754 -260.12731477 855.35018503 -265.5703125 852.21484375 C-277.0544882 845.59777108 -288.52196894 838.95366023 -299.96582031 832.26708984 C-310.52620282 826.10080946 -321.12126766 819.9950405 -331.71777344 813.89111328 C-338.22871257 810.13971976 -344.73663194 806.38309006 -351.24511719 802.62744141 C-356.68585336 799.48817754 -362.12731477 796.35018503 -367.5703125 793.21484375 C-380.06149319 786.017686 -392.53421037 778.79020729 -404.98046875 771.515625 C-409.25038607 769.01995265 -413.52440348 766.53146081 -417.80078125 764.046875 C-418.91114746 763.40113525 -420.02151367 762.75539551 -421.16552734 762.09008789 C-423.30969496 760.8432965 -425.45452812 759.59764881 -427.60009766 758.35327148 C-428.55577637 757.79712158 -429.51145508 757.24097168 -430.49609375 756.66796875 C-431.34357178 756.17578857 -432.1910498 755.6836084 -433.06420898 755.17651367 C-435 754 -435 754 -436 753 C-436.11082729 750.33976934 -436.15574765 747.70497726 -436.15936089 745.04376125 C-436.16440948 744.19575222 -436.16945808 743.34774318 -436.17465967 742.4740369 C-436.19050228 739.59527812 -436.19909939 736.71654212 -436.20773315 733.8377533 C-436.21746648 731.76781531 -436.22760519 729.69787919 -436.23811734 727.62794501 C-436.26573345 721.91067098 -436.28678726 716.19338853 -436.30663323 710.47608292 C-436.32439554 705.57938063 -436.34582304 700.68269694 -436.36717294 695.78600919 C-436.56516713 650.1365421 -436.66942416 604.48661192 -436.75161848 558.83680517 C-436.76388917 552.04427892 -436.7766319 545.25175356 -436.78955078 538.45922852 C-436.79096776 537.7086516 -436.79238474 536.95807468 -436.79384466 536.18475301 C-436.84009811 511.85072255 -436.93113609 487.5171202 -437.04639695 463.18332644 C-437.1646317 438.17622304 -437.24051438 413.16935256 -437.26198688 388.16196942 C-437.2650326 384.63052212 -437.26854838 381.09907543 -437.27234268 377.56762886 C-437.27307268 376.87259005 -437.27380268 376.17755125 -437.2745548 375.46145066 C-437.28752614 364.27038335 -437.34494086 353.07996396 -437.41877765 341.88915119 C-437.49200322 330.64100426 -437.51668175 319.3935267 -437.4950311 308.14509284 C-437.48469721 302.04930659 -437.49565591 295.95548152 -437.56312943 289.86001778 C-437.62441521 284.28077911 -437.62589321 278.70485989 -437.57947291 273.1255073 C-437.57327466 271.10583434 -437.5891581 269.08594991 -437.62916015 267.06666362 C-437.90312302 252.36773563 -437.90312302 252.36773563 -434.74678674 248.4408377 C-431.24143092 245.41470421 -427.26597915 243.75542236 -423 242 C-420.96941357 240.84986621 -418.95219579 239.67538391 -416.95703125 238.46484375 C-414.90995526 237.28714651 -412.86174178 236.11142462 -410.8125 234.9375 C-409.10957218 233.95848887 -407.4066462 232.97947453 -405.7038269 232.00027466 C-403.95604539 230.99552701 -402.20779404 229.99160086 -400.45947266 228.98779297 C-394.96860763 225.8327737 -389.48452655 222.66602037 -384 219.5 C-381.83336859 218.24993888 -379.66670186 216.999939 -377.5 215.75 C-376.4275 215.13125 -375.355 214.5125 -374.25 213.875 C-364.5 208.25 -364.5 208.25 -361.24951172 206.37475586 C-359.08442929 205.12564482 -356.91939018 203.87645871 -354.75439453 202.62719727 C-349.31384294 199.48797691 -343.87252784 196.35009437 -338.4296875 193.21484375 C-327.93767906 187.16944841 -317.45518324 181.10889781 -307 175 C-295.45270484 168.25298806 -283.87097973 161.56660682 -272.28222656 154.89111328 C-266.85340062 151.76319854 -261.42677993 148.63146269 -256 145.5 C-249.47766725 141.73636081 -242.95486238 137.97355378 -236.4296875 134.21484375 C-225.93767906 128.16944841 -215.45518324 122.10889781 -205 116 C-193.45270484 109.25298806 -181.87097973 102.56660682 -170.28222656 95.89111328 C-164.85340062 92.76319854 -159.42677993 89.63146269 -154 86.5 C-147.47766725 82.73636081 -140.95486238 78.97355378 -134.4296875 75.21484375 C-123.93767906 69.16944841 -113.45518324 63.10889781 -103 57 C-91.45270484 50.25298806 -79.87097973 43.56660682 -68.28222656 36.89111328 C-61.78293706 33.1464319 -55.28643128 29.39692174 -48.79003906 25.6472168 C-43.7499957 22.73852935 -38.70898255 19.83157154 -33.66400146 16.93145752 C-31.88250422 15.90724335 -30.10135678 14.88242349 -28.3203125 13.85742188 C-26.08923375 12.57366625 -23.85750427 11.29104061 -21.625 10.00976562 C-20.61179687 9.42646484 -19.59859375 8.84316406 -18.5546875 8.2421875 C-17.59916992 7.69272461 -16.64365234 7.14326172 -15.65917969 6.57714844 C-12.63272595 4.78217129 -9.70809523 2.8626005 -6.82080078 0.85205078 C-4.35680557 -0.30098533 -2.69865672 -0.30127036 0 0 Z " fill="#9554CA" transform="translate(543,39)"/>
<path d="M0 0 C80.76199616 0 80.76199616 0 87.15625 6.03515625 C87.5996875 6.70417969 88.043125 7.37320312 88.5 8.0625 C88.9640625 8.73410156 89.428125 9.40570313 89.90625 10.09765625 C91.83725269 13.45622164 92.12614247 16.18063419 92.13142776 19.972332 C92.13526891 21.00507334 92.13911005 22.03781469 92.1430676 23.10185122 C92.14220112 24.24005856 92.14133463 25.37826589 92.14044189 26.55096436 C92.14489858 28.36049807 92.14489858 28.36049807 92.1494453 30.20658803 C92.15663352 33.56117724 92.15930523 36.91571525 92.16004276 40.27030849 C92.1618922 43.8859712 92.169439 47.50162277 92.17617798 51.11727905 C92.18976671 59.02640855 92.19578693 66.93553298 92.20018864 74.8446722 C92.20295028 79.78242793 92.20718751 84.72018169 92.21169281 89.6579361 C92.22388644 103.32680005 92.2341854 116.99566243 92.2375679 130.66453171 C92.23778747 131.53957834 92.23800703 132.41462497 92.23823325 133.31618817 C92.23845153 134.19334026 92.23866981 135.07049235 92.2388947 135.97422481 C92.23933817 137.75169675 92.23978473 139.52916869 92.24023438 141.30664062 C92.2404558 142.18832992 92.24067723 143.07001921 92.24090537 143.97842637 C92.24485327 158.26455372 92.26230663 172.55063007 92.2855939 186.83673772 C92.30930485 201.50103946 92.32176964 216.16531559 92.32293582 230.82963681 C92.32385275 239.06431687 92.32960959 247.29893047 92.34775543 255.53359222 C92.36315301 262.54584863 92.36827895 269.55801805 92.36001733 276.57028815 C92.35610952 280.1478625 92.35704664 283.72526167 92.37107468 287.30281448 C92.38614752 291.18231905 92.37795086 295.06157683 92.36749268 298.94110107 C92.37957728 300.63502774 92.37957728 300.63502774 92.39190602 302.36317515 C92.33968444 310.62985191 91.07331577 316.92668423 85 323 C78.21310139 327.23632788 72.71600559 327.57436751 64.82325745 327.52139282 C63.60995709 327.52904392 62.39665673 327.53669501 61.1465897 327.54457796 C57.79547003 327.56159474 54.44523204 327.5607907 51.0941385 327.55221677 C47.47371306 327.54727113 43.85338952 327.56532426 40.23300171 327.58029175 C33.14702267 327.60575843 26.06119529 327.60937665 18.97517819 327.60469122 C13.21455922 327.60112178 7.45398621 327.60463075 1.69337273 327.61314011 C0.87277286 327.61433048 0.052173 327.61552086 -0.79329352 327.61674731 C-2.46045868 327.61917087 -4.12762382 327.62159914 -5.79478896 327.62403207 C-21.42052347 327.64577227 -37.04617159 327.641463 -52.67191095 327.62926237 C-66.95968786 327.61892295 -81.2471921 327.64143942 -95.53491508 327.67945881 C-110.21522873 327.71822266 -124.89541339 327.73472653 -139.57577854 327.72721231 C-147.8138645 327.72338951 -156.05171834 327.72835112 -164.2897625 327.75664139 C-171.30230533 327.78048007 -178.31447313 327.78326693 -185.32702117 327.75906105 C-188.90303111 327.74729107 -192.47835531 327.74506094 -196.05431938 327.76906586 C-199.93530971 327.79481511 -203.8152636 327.77383699 -207.6962738 327.7484436 C-208.82021292 327.76319217 -209.94415203 327.77794074 -211.1021499 327.79313624 C-218.51034635 327.69120838 -223.49335149 326.09204933 -229 321 C-245.80504725 298.95245617 -234 243.29782017 -234 235 C-156.78 235 -79.56 235 0 235 C0 157.45 0 79.9 0 0 Z " fill="#FEFEFE" transform="translate(684,451)"/>
<path d="M0 0 C1.03200665 -0.00644889 2.0640133 -0.01289778 3.12729287 -0.0195421 C4.25441933 -0.01644489 5.3815458 -0.01334769 6.54282761 -0.01015663 C7.74539758 -0.01468774 8.94796756 -0.01921886 10.18697906 -0.02388728 C13.52184253 -0.03435915 16.85649038 -0.03585685 20.19135499 -0.03349853 C23.78930726 -0.03309035 27.38722736 -0.04412964 30.98516464 -0.05361366 C38.03342171 -0.07022507 45.08164533 -0.07572329 52.12992033 -0.07683842 C57.86008769 -0.07778892 63.59024401 -0.08189932 69.32040787 -0.08823967 C85.56985264 -0.10585323 101.81927099 -0.11507848 118.06872538 -0.11357872 C119.38268363 -0.11345885 119.38268363 -0.11345885 120.72318649 -0.11333656 C121.60022955 -0.1132548 122.47727261 -0.11317304 123.38089272 -0.1130888 C137.59119875 -0.11227609 151.80139872 -0.13140973 166.01167408 -0.1596133 C180.60599354 -0.18835026 195.20026131 -0.20215311 209.79460979 -0.20042574 C217.9868637 -0.19976207 226.17900648 -0.2052441 234.37123489 -0.22678185 C241.34717871 -0.24500444 248.32296101 -0.24933225 255.29891834 -0.235763 C258.85654926 -0.22923843 262.41387044 -0.22909715 265.97147179 -0.2464695 C269.83272094 -0.26513022 273.69351924 -0.25263203 277.5547905 -0.23720741 C278.67299407 -0.24749454 279.79119765 -0.25778167 280.94328618 -0.26838052 C288.55205673 -0.20124714 295.25560934 0.90930875 300.95902634 6.29242516 C301.40246384 6.96144859 301.84590134 7.63047203 302.30277634 8.31976891 C302.76683884 8.99137047 303.23090134 9.66297203 303.70902634 10.35492516 C317.32121008 34.03040188 305.80277634 64.94756835 305.80277634 92.25726891 C228.58277634 92.25726891 151.36277634 92.25726891 71.80277634 92.25726891 C71.80277634 169.47726891 71.80277634 246.69726891 71.80277634 326.25726891 C-6.19722366 326.25726891 -6.19722366 326.25726891 -15.19722366 320.25726891 C-18.57787517 315.27080793 -20.31942273 311.29001621 -20.33144474 305.30334759 C-20.33590258 304.27470634 -20.34036043 303.24606509 -20.34495336 302.18625289 C-20.344769 301.05261863 -20.34458463 299.91898436 -20.34439468 298.75099754 C-20.34807137 297.54943085 -20.35174806 296.34786415 -20.35553616 295.10988635 C-20.36466529 291.76863127 -20.36927319 288.42742533 -20.37192547 285.08616245 C-20.37582809 281.48479376 -20.38540646 277.8834393 -20.39413834 274.2820797 C-20.41390412 265.58169974 -20.42396917 256.88131862 -20.43286613 248.18092182 C-20.4372489 244.08409822 -20.44261574 239.98727592 -20.447855 235.89045334 C-20.4648675 222.27220522 -20.47936174 208.65395791 -20.48660374 195.0357008 C-20.48851364 191.50140253 -20.49043397 187.96710426 -20.49238968 184.43280602 C-20.49311529 183.11515146 -20.49311529 183.11515146 -20.49385556 181.77087762 C-20.50215609 167.54037462 -20.52749328 153.30995568 -20.55997036 139.07948939 C-20.59303946 124.47055377 -20.61105237 109.86166088 -20.61424798 95.25268763 C-20.61641323 87.04980901 -20.62516406 78.84705296 -20.65070915 70.64421082 C-20.67241414 63.65831704 -20.6804676 56.6725756 -20.67074237 49.68665192 C-20.66619701 46.12307697 -20.66809713 42.55981634 -20.68750381 38.99628448 C-20.70837601 35.13021203 -20.69815215 31.2645727 -20.68497086 27.39845848 C-20.6959401 26.27597782 -20.70690935 25.15349717 -20.718211 23.99700195 C-20.65971024 16.89528514 -19.7620724 11.09121048 -14.78531057 5.73877746 C-10.26141367 1.7162568 -5.99337486 0.00949418 0 0 Z " fill="#FEFEFE" transform="translate(317.1972236633301,296.74273109436035)"/>
<path d="M0 0 C1.29990372 -0.00137466 2.59980743 -0.00274933 3.93910217 -0.00416565 C5.38276695 -0.00062648 6.8264315 0.00300833 8.27009583 0.00672913 C9.7877604 0.00701115 11.30542511 0.00685297 12.8230896 0.00628662 C16.94675929 0.00599923 21.0704 0.01188656 25.19406295 0.01886058 C29.50222741 0.02510381 33.8103925 0.02569869 38.11856079 0.02688599 C46.27830617 0.02999643 54.43803818 0.03820598 62.59777766 0.04823548 C71.88666504 0.05940548 81.17555305 0.0649093 90.46444547 0.06993091 C109.57390487 0.08038882 128.68335181 0.09798274 147.7928009 0.12025452 C147.88635189 19.0008086 147.95683278 37.88131548 148.00004959 56.76205349 C148.02065164 65.52923785 148.04872699 74.29627798 148.09455872 83.06336975 C148.13449886 90.70712972 148.16025085 98.35078519 148.16915488 105.99464661 C148.17435753 110.03992246 148.18653602 114.08489945 148.21572113 118.13007927 C148.24300396 121.94272164 148.25122018 125.75494391 148.24523163 129.56767464 C148.24632615 130.96200473 148.25420345 132.35634983 148.2696228 133.75059509 C148.35787617 142.14712512 148.25975401 150.13392439 142.38075638 156.69647884 C137.41167883 161.13075077 132.87232176 162.37140288 126.34509277 162.36076355 C124.3911132 162.36488754 124.3911132 162.36488754 122.3976593 162.36909485 C120.96125701 162.36201742 119.52485565 162.35474781 118.0884552 162.3473053 C116.57049568 162.34674094 115.05253562 162.34705823 113.53457642 162.34819031 C109.41925333 162.34876384 105.30404696 162.33700938 101.18875098 162.32304239 C96.88594133 162.31053521 92.58312898 162.30936454 88.28030396 162.30699158 C80.1347722 162.30077678 71.98929417 162.28436595 63.84378606 162.2642926 C54.56936802 162.24193361 45.29494741 162.23094017 36.02050912 162.22090173 C16.94457593 162.19999973 -2.13130726 162.16482374 -21.2071991 162.12025452 C-21.30071817 143.09204551 -21.37121538 124.06388326 -21.41444778 105.03549194 C-21.43505658 96.19989836 -21.46314491 87.36444774 -21.50895691 78.52894592 C-21.54887632 70.82623192 -21.57464415 63.12362146 -21.58355308 55.42080688 C-21.58875922 51.34370603 -21.60096015 47.26690138 -21.63011932 43.18989563 C-21.6573693 39.34853002 -21.66562492 35.50758124 -21.65962982 31.66612816 C-21.6607258 30.26009032 -21.66862282 28.85403783 -21.684021 27.44808388 C-21.7660397 19.5695105 -21.55932457 13.81493649 -17.2071991 7.12025452 C-15.17204285 5.06166077 -15.17204285 5.06166077 -13.1446991 3.68275452 C-12.47309753 3.20966858 -11.80149597 2.73658264 -11.10954285 2.24916077 C-7.36765987 0.0286183 -4.25812048 -0.0034647 0 0 Z " fill="#FEFEFE" transform="translate(473.2071990966797,458.87974548339844)"/>
</svg>
